<?xml version="1.0" encoding="UTF-8"?>
<svg width="1200px" height="1200px" viewBox="0 0 1200 1200" version="1.1" xmlns="http://www.w3.org/2000/svg" xmlns:xlink="http://www.w3.org/1999/xlink">
    <g id="favicon_stock-copy" stroke="none" stroke-width="1" fill="none" fill-rule="evenodd">
        <g id="S" transform="translate(310, 200)" fill="#1876D2" fill-rule="nonzero">
            <path d="M294.264706,800 C454.191176,800 580,691.2 580,554.666667 C580,419.2 454.191176,308.266667 291.066176,308.266667 C245.220588,308.266667 214.301471,282.666667 214.301471,245.333333 C214.301471,208 245.220588,183.466667 291.066176,183.466667 C334.779412,183.466667 367.830882,212.266667 367.830882,245.333333 L580,245.333333 C580,108.8 450.992647,0 291.066176,0 C121.544118,0 1.06617647,109.866667 1.06617647,246.4 C1.06617647,382.933333 134.338235,492.8 288.933824,492.8 C330.514706,492.8 366.764706,516.266667 366.764706,555.733333 C366.764706,593.066667 333.713235,617.6 291.066176,617.6 C244.154412,617.6 213.235294,589.866667 213.235294,555.733333 L0,555.733333 C0,685.866667 119.411765,800 294.264706,800 Z" id="Path"></path>
        </g>
    </g>
</svg>